# xmcd
# 
# Track frame offsets:
#     150
#     23385
#     40362
#     58744
#     77604
#     98966
#     119706
#     139356
#     158036
#     181343
#     198437
#     216790
#     237200
#     257905
#     277205
#     294815
#     308318
# 
# Disc length: 4345
# 
# Revision: 0
# Processed by: cddbd v1.5.2PL0 Copyright (c) Steve Scherf et al.
# Submitted via: fre:ac v1.0.31
# 
DISCID=f110f711
DTITLE=Sergio Dalma - Lo Mejor De... 1984-2004
DYEAR=2004
DGENRE=Pop
TTITLE0=Mi historia entre tus dedos
TTITLE1=Galilea
TTITLE2=Esa chica es mía
TTITLE3=En mi selva
TTITLE4=Bailar pegados
TTITLE5=Ya lo verás
TTITLE6=Fuego en eL alma
TTITLE7=Déjame olvidarte
TTITLE8=Nueva vida
TTITLE9=No me digas que no
TTITLE10=No despertaré
TTITLE11=Náufragos
TTITLE12=Una historia distinta
TTITLE13=Ave Lucía
TTITLE14=Castigado por pensar en ti
TTITLE15=Soy tremendo
TTITLE16=Bailar Pegados (Versión Reggae)
EXTD=
EXTT0=
EXTT1=
EXTT2=
EXTT3=
EXTT4=
EXTT5=
EXTT6=
EXTT7=
EXTT8=
EXTT9=
EXTT10=
EXTT11=
EXTT12=
EXTT13=
EXTT14=
EXTT15=
EXTT16=
PLAYORDER=
